<svg xmlns="http://www.w3.org/2000/svg" viewBox="0 0 520 580" width="520" height="580" font-family="system-ui,sans-serif">
<style>.lbl{font-size:12px;fill:#1e293b;font-weight:600}.cap{font-size:14px;fill:#1e293b;font-weight:700}.sub{font-size:11px;fill:#64748b}</style>
<text x="260" y="26" text-anchor="middle" class="cap">Impact Sunburst · io.ktor</text>
<text x="260" y="44" text-anchor="middle" class="sub">3.4.2 -&gt; 3.4.3 &#183; 28 archivos</text>
<path d="M 260.00 200.00 L 260.00 155.00 A 135.00 135.00 0 0 1 260.00 425.00 L 260.00 380.00 A 90.00 90.00 0 0 0 260.00 200.00 Z" fill="#312e81" opacity="0.85"/>
<text x="373.0" y="290.0" text-anchor="middle" class="lbl" fill="#fff">commonMain</text>
<path d="M 260.00 380.00 L 260.00 425.00 A 135.00 135.00 0 0 1 201.43 411.63 L 220.95 371.09 A 90.00 90.00 0 0 0 260.00 380.00 Z" fill="#0f766e" opacity="0.85"/>
<path d="M 220.95 371.09 L 201.43 411.63 A 135.00 135.00 0 0 1 154.45 374.17 L 189.64 346.11 A 90.00 90.00 0 0 0 220.95 371.09 Z" fill="#9d174d" opacity="0.85"/>
<path d="M 189.64 346.11 L 154.45 374.17 A 135.00 135.00 0 0 1 138.37 231.43 L 178.91 250.95 A 90.00 90.00 0 0 0 189.64 346.11 Z" fill="#6b7280" opacity="0.85"/>
<text x="147.7" y="302.7" text-anchor="middle" class="lbl" fill="#fff">commonTest</text>
<path d="M 178.91 250.95 L 138.37 231.43 A 135.00 135.00 0 0 1 154.45 205.83 L 189.64 233.89 A 90.00 90.00 0 0 0 178.91 250.95 Z" fill="#475569" opacity="0.85"/>
<path d="M 189.64 233.89 L 154.45 205.83 A 135.00 135.00 0 0 1 175.83 184.45 L 203.89 219.64 A 90.00 90.00 0 0 0 189.64 233.89 Z" fill="#475569" opacity="0.85"/>
<path d="M 203.89 219.64 L 175.83 184.45 A 135.00 135.00 0 0 1 260.00 155.00 L 260.00 200.00 A 90.00 90.00 0 0 0 203.89 219.64 Z" fill="#475569" opacity="0.85"/>
<text x="222.7" y="183.3" text-anchor="middle" class="lbl" fill="#fff">main</text>
<path d="M 260.00 150.00 L 260.00 90.00 A 200.00 200.00 0 0 1 384.70 133.63 L 347.29 180.54 A 140.00 140.00 0 0 0 260.00 150.00 Z" fill="#B91C1C" opacity="0.9"/>
<path d="M 347.29 180.54 L 384.70 133.63 A 200.00 200.00 0 0 1 416.37 414.70 L 369.46 377.29 A 140.00 140.00 0 0 0 347.29 180.54 Z" fill="#1D4ED8" opacity="0.9"/>
<path d="M 369.46 377.29 L 416.37 414.70 A 200.00 200.00 0 0 1 260.00 490.00 L 260.00 430.00 A 140.00 140.00 0 0 0 369.46 377.29 Z" fill="#94A3B8" opacity="0.9"/>
<path d="M 260.00 430.00 L 260.00 490.00 A 200.00 200.00 0 0 1 215.50 484.99 L 228.85 426.49 A 140.00 140.00 0 0 0 260.00 430.00 Z" fill="#B91C1C" opacity="0.9"/>
<path d="M 228.85 426.49 L 215.50 484.99 A 200.00 200.00 0 0 1 173.22 470.19 L 199.26 416.14 A 140.00 140.00 0 0 0 228.85 426.49 Z" fill="#94A3B8" opacity="0.9"/>
<path d="M 199.26 416.14 L 173.22 470.19 A 200.00 200.00 0 0 1 135.30 446.37 L 172.71 399.46 A 140.00 140.00 0 0 0 199.26 416.14 Z" fill="#B91C1C" opacity="0.9"/>
<path d="M 172.71 399.46 L 135.30 446.37 A 200.00 200.00 0 0 1 103.63 414.70 L 150.54 377.29 A 140.00 140.00 0 0 0 172.71 399.46 Z" fill="#94A3B8" opacity="0.9"/>
<path d="M 150.54 377.29 L 103.63 414.70 A 200.00 200.00 0 0 1 79.81 376.78 L 133.86 350.74 A 140.00 140.00 0 0 0 150.54 377.29 Z" fill="#B91C1C" opacity="0.9"/>
<path d="M 133.86 350.74 L 79.81 376.78 A 200.00 200.00 0 0 1 65.01 245.50 L 123.51 258.85 A 140.00 140.00 0 0 0 133.86 350.74 Z" fill="#1D4ED8" opacity="0.9"/>
<path d="M 123.51 258.85 L 65.01 245.50 A 200.00 200.00 0 0 1 79.81 203.22 L 133.86 229.26 A 140.00 140.00 0 0 0 123.51 258.85 Z" fill="#94A3B8" opacity="0.9"/>
<path d="M 133.86 229.26 L 79.81 203.22 A 200.00 200.00 0 0 1 103.63 165.30 L 150.54 202.71 A 140.00 140.00 0 0 0 133.86 229.26 Z" fill="#94A3B8" opacity="0.9"/>
<path d="M 150.54 202.71 L 103.63 165.30 A 200.00 200.00 0 0 1 135.30 133.63 L 172.71 180.54 A 140.00 140.00 0 0 0 150.54 202.71 Z" fill="#94A3B8" opacity="0.9"/>
<path d="M 172.71 180.54 L 135.30 133.63 A 200.00 200.00 0 0 1 260.00 90.00 L 260.00 150.00 A 140.00 140.00 0 0 0 172.71 180.54 Z" fill="#1D4ED8" opacity="0.9"/>
<g transform="translate(20,560)"><rect width="14" height="14" fill="#B91C1C"/><text x="20" y="11" class="sub">Directo</text><rect x="90" width="14" height="14" fill="#1D4ED8"/><text x="110" y="11" class="sub">Transitivo</text><rect x="200" width="14" height="14" fill="#94A3B8"/><text x="220" y="11" class="sub">Expect/Actual</text><rect x="330" width="14" height="14" fill="#e5e7eb" stroke="#cbd5e1"/><text x="350" y="11" class="sub">Sin impacto</text></g>
</svg>