<svg xmlns="http://www.w3.org/2000/svg" viewBox="0 0 860 420" width="860" height="420" font-family="system-ui,sans-serif">
<rect width="100%" height="100%" fill="#0d1117"/>
<text x="430" y="30" text-anchor="middle" fill="#e6edf3" font-size="14" font-weight="700">Transitive Dependency Graph</text>
<text x="430" y="50" text-anchor="middle" fill="#7d8590" font-size="11">24 packages, 23 edges (showing top 14)</text>
<circle cx="40" cy="350" r="7" fill="#30363d" stroke="#484f58" stroke-width="1"/>
<text x="40" y="375" text-anchor="middle" fill="#e6edf3" font-size="10" transform="rotate(35 40 375)">tree-sitter-kotlin</text>
<circle cx="100" cy="350" r="7" fill="#30363d" stroke="#484f58" stroke-width="1"/>
<text x="100" y="375" text-anchor="middle" fill="#e6edf3" font-size="10" transform="rotate(35 100 375)">pydantic</text>
<circle cx="160" cy="350" r="7" fill="#30363d" stroke="#484f58" stroke-width="1"/>
<text x="160" y="375" text-anchor="middle" fill="#e6edf3" font-size="10" transform="rotate(35 160 375)">setuptools</text>
<circle cx="220" cy="350" r="7" fill="#30363d" stroke="#484f58" stroke-width="1"/>
<text x="220" y="375" text-anchor="middle" fill="#e6edf3" font-size="10" transform="rotate(35 220 375)">pyyaml</text>
<circle cx="280" cy="350" r="7" fill="#30363d" stroke="#484f58" stroke-width="1"/>
<text x="280" y="375" text-anchor="middle" fill="#e6edf3" font-size="10" transform="rotate(35 280 375)">tree-sitter</text>
<circle cx="340" cy="350" r="7" fill="#30363d" stroke="#484f58" stroke-width="1"/>
<text x="340" y="375" text-anchor="middle" fill="#e6edf3" font-size="10" transform="rotate(35 340 375)">rich</text>
<circle cx="400" cy="350" r="7" fill="#30363d" stroke="#484f58" stroke-width="1"/>
<text x="400" y="375" text-anchor="middle" fill="#e6edf3" font-size="10" transform="rotate(35 400 375)">pytest-cov</text>
<circle cx="460" cy="350" r="7" fill="#30363d" stroke="#484f58" stroke-width="1"/>
<text x="460" y="375" text-anchor="middle" fill="#e6edf3" font-size="10" transform="rotate(35 460 375)">click</text>
<circle cx="520" cy="350" r="7" fill="#30363d" stroke="#484f58" stroke-width="1"/>
<text x="520" y="375" text-anchor="middle" fill="#e6edf3" font-size="10" transform="rotate(35 520 375)">pytest</text>
<circle cx="580" cy="350" r="7" fill="#30363d" stroke="#484f58" stroke-width="1"/>
<text x="580" y="375" text-anchor="middle" fill="#e6edf3" font-size="10" transform="rotate(35 580 375)">requests</text>
<circle cx="640" cy="350" r="7" fill="#30363d" stroke="#484f58" stroke-width="1"/>
<text x="640" y="375" text-anchor="middle" fill="#e6edf3" font-size="10" transform="rotate(35 640 375)">actions/setup-java</text>
<circle cx="700" cy="350" r="7" fill="#30363d" stroke="#484f58" stroke-width="1"/>
<text x="700" y="375" text-anchor="middle" fill="#e6edf3" font-size="10" transform="rotate(35 700 375)">actions/setup-pyth</text>
<circle cx="760" cy="350" r="7" fill="#30363d" stroke="#484f58" stroke-width="1"/>
<text x="760" y="375" text-anchor="middle" fill="#e6edf3" font-size="10" transform="rotate(35 760 375)">actions/cache</text>
<circle cx="820" cy="350" r="7" fill="#30363d" stroke="#484f58" stroke-width="1"/>
<text x="820" y="375" text-anchor="middle" fill="#e6edf3" font-size="10" transform="rotate(35 820 375)">reactivecircus/and</text>
<g transform="translate(30, 70)" font-size="10" fill="#7d8590"><circle cx="6" cy="6" r="5" fill="#388bfd" stroke="#79c0ff" stroke-width="2"/><text x="18" y="10">Changed in this PR</text><circle cx="150" cy="6" r="5" fill="#30363d" stroke="#484f58"/><text x="162" y="10">Other hub</text><path d="M 250 10 A 20 20 0 0 1 290 10" fill="none" stroke="#79c0ff" stroke-width="1.2" opacity="0.45"/><text x="298" y="10">Depends on changed package</text></g>
</svg>