<svg xmlns="http://www.w3.org/2000/svg" viewBox="0 0 520 580" width="520" height="580" font-family="system-ui,sans-serif">
<style>.lbl{font-size:12px;fill:#1e293b;font-weight:600}.cap{font-size:14px;fill:#1e293b;font-weight:700}.sub{font-size:11px;fill:#64748b}</style>
<text x="260" y="26" text-anchor="middle" class="cap">Impact Sunburst · io.insert-koin</text>
<text x="260" y="44" text-anchor="middle" class="sub">4.2.0 -&gt; 4.2.1 &#183; 21 archivos</text>
<path d="M 260.00 200.00 L 260.00 155.00 A 135.00 135.00 0 0 1 376.91 357.50 L 337.94 335.00 A 90.00 90.00 0 0 0 260.00 200.00 Z" fill="#312e81" opacity="0.85"/>
<text x="357.9" y="233.5" text-anchor="middle" class="lbl" fill="#fff">commonMain</text>
<path d="M 337.94 335.00 L 376.91 357.50 A 135.00 135.00 0 0 1 318.57 411.63 L 299.05 371.09 A 90.00 90.00 0 0 0 337.94 335.00 Z" fill="#0f766e" opacity="0.85"/>
<text x="336.9" y="372.8" text-anchor="middle" class="lbl" fill="#fff">androidMain</text>
<path d="M 299.05 371.09 L 318.57 411.63 A 135.00 135.00 0 0 1 239.88 423.49 L 246.59 378.99 A 90.00 90.00 0 0 0 299.05 371.09 Z" fill="#9d174d" opacity="0.85"/>
<text x="276.8" y="401.7" text-anchor="middle" class="lbl" fill="#fff">iosMain</text>
<path d="M 246.59 378.99 L 239.88 423.49 A 135.00 135.00 0 0 1 143.09 357.50 L 182.06 335.00 A 90.00 90.00 0 0 0 246.59 378.99 Z" fill="#6b7280" opacity="0.85"/>
<text x="196.3" y="383.4" text-anchor="middle" class="lbl" fill="#fff">commonTest</text>
<path d="M 182.06 335.00 L 143.09 357.50 A 135.00 135.00 0 0 1 125.38 279.91 L 170.25 283.27 A 90.00 90.00 0 0 0 182.06 335.00 Z" fill="#475569" opacity="0.85"/>
<text x="149.8" y="315.1" text-anchor="middle" class="lbl" fill="#fff">androidUnitTest</text>
<path d="M 170.25 283.27 L 125.38 279.91 A 135.00 135.00 0 0 1 154.45 205.83 L 189.64 233.89 A 90.00 90.00 0 0 0 170.25 283.27 Z" fill="#475569" opacity="0.85"/>
<text x="154.8" y="248.7" text-anchor="middle" class="lbl" fill="#fff">iosTest</text>
<path d="M 189.64 233.89 L 154.45 205.83 A 135.00 135.00 0 0 1 260.00 155.00 L 260.00 200.00 A 90.00 90.00 0 0 0 189.64 233.89 Z" fill="#475569" opacity="0.85"/>
<text x="211.0" y="188.2" text-anchor="middle" class="lbl" fill="#fff">main</text>
<path d="M 260.00 150.00 L 260.00 90.00 A 200.00 200.00 0 0 1 318.95 98.89 L 301.27 156.22 A 140.00 140.00 0 0 0 260.00 150.00 Z" fill="#B91C1C" opacity="0.9"/>
<path d="M 301.27 156.22 L 318.95 98.89 A 200.00 200.00 0 0 1 416.37 165.30 L 369.46 202.71 A 140.00 140.00 0 0 0 301.27 156.22 Z" fill="#1D4ED8" opacity="0.9"/>
<path d="M 369.46 202.71 L 416.37 165.30 A 200.00 200.00 0 0 1 433.21 390.00 L 381.24 360.00 A 140.00 140.00 0 0 0 369.46 202.71 Z" fill="#94A3B8" opacity="0.9"/>
<path d="M 381.24 360.00 L 433.21 390.00 A 200.00 200.00 0 0 1 396.03 436.61 L 355.22 392.63 A 140.00 140.00 0 0 0 381.24 360.00 Z" fill="#B91C1C" opacity="0.9"/>
<path d="M 355.22 392.63 L 396.03 436.61 A 200.00 200.00 0 0 1 346.78 470.19 L 320.74 416.14 A 140.00 140.00 0 0 0 355.22 392.63 Z" fill="#94A3B8" opacity="0.9"/>
<path d="M 320.74 416.14 L 346.78 470.19 A 200.00 200.00 0 0 1 289.81 487.77 L 280.87 428.44 A 140.00 140.00 0 0 0 320.74 416.14 Z" fill="#B91C1C" opacity="0.9"/>
<path d="M 280.87 428.44 L 289.81 487.77 A 200.00 200.00 0 0 1 230.19 487.77 L 239.13 428.44 A 140.00 140.00 0 0 0 280.87 428.44 Z" fill="#94A3B8" opacity="0.9"/>
<path d="M 239.13 428.44 L 230.19 487.77 A 200.00 200.00 0 0 1 123.97 436.61 L 164.78 392.63 A 140.00 140.00 0 0 0 239.13 428.44 Z" fill="#1D4ED8" opacity="0.9"/>
<path d="M 164.78 392.63 L 123.97 436.61 A 200.00 200.00 0 0 1 86.79 390.00 L 138.76 360.00 A 140.00 140.00 0 0 0 164.78 392.63 Z" fill="#94A3B8" opacity="0.9"/>
<path d="M 138.76 360.00 L 86.79 390.00 A 200.00 200.00 0 0 1 65.01 334.50 L 123.51 321.15 A 140.00 140.00 0 0 0 138.76 360.00 Z" fill="#B91C1C" opacity="0.9"/>
<path d="M 123.51 321.15 L 65.01 334.50 A 200.00 200.00 0 0 1 60.56 275.05 L 120.39 279.54 A 140.00 140.00 0 0 0 123.51 321.15 Z" fill="#94A3B8" opacity="0.9"/>
<path d="M 120.39 279.54 L 60.56 275.05 A 200.00 200.00 0 0 1 73.83 216.93 L 129.68 238.85 A 140.00 140.00 0 0 0 120.39 279.54 Z" fill="#B91C1C" opacity="0.9"/>
<path d="M 129.68 238.85 L 73.83 216.93 A 200.00 200.00 0 0 1 103.63 165.30 L 150.54 202.71 A 140.00 140.00 0 0 0 129.68 238.85 Z" fill="#94A3B8" opacity="0.9"/>
<path d="M 150.54 202.71 L 103.63 165.30 A 200.00 200.00 0 0 1 201.05 98.89 L 218.73 156.22 A 140.00 140.00 0 0 0 150.54 202.71 Z" fill="#B91C1C" opacity="0.9"/>
<path d="M 218.73 156.22 L 201.05 98.89 A 200.00 200.00 0 0 1 260.00 90.00 L 260.00 150.00 A 140.00 140.00 0 0 0 218.73 156.22 Z" fill="#1D4ED8" opacity="0.9"/>
<g transform="translate(20,560)"><rect width="14" height="14" fill="#B91C1C"/><text x="20" y="11" class="sub">Directo</text><rect x="90" width="14" height="14" fill="#1D4ED8"/><text x="110" y="11" class="sub">Transitivo</text><rect x="200" width="14" height="14" fill="#94A3B8"/><text x="220" y="11" class="sub">Expect/Actual</text><rect x="330" width="14" height="14" fill="#e5e7eb" stroke="#cbd5e1"/><text x="350" y="11" class="sub">Sin impacto</text></g>
</svg>