<svg xmlns="http://www.w3.org/2000/svg" viewBox="0 0 520 580" width="520" height="580" font-family="system-ui,sans-serif">
<style>.lbl{font-size:12px;fill:#1e293b;font-weight:600}.cap{font-size:14px;fill:#1e293b;font-weight:700}.sub{font-size:11px;fill:#64748b}</style>
<text x="260" y="26" text-anchor="middle" class="cap">Impact Sunburst · org.jetbrains.kotlin</text>
<text x="260" y="44" text-anchor="middle" class="sub">2.3.0 -&gt; 2.3.21 &#183; 30 archivos</text>
<path d="M 260.00 200.00 L 260.00 155.00 A 135.00 135.00 0 0 1 339.35 399.22 L 312.90 362.81 A 90.00 90.00 0 0 0 260.00 200.00 Z" fill="#312e81" opacity="0.85"/>
<text x="367.5" y="255.1" text-anchor="middle" class="lbl" fill="#fff">commonMain</text>
<path d="M 312.90 362.81 L 339.35 399.22 A 135.00 135.00 0 0 1 314.91 413.33 L 296.61 372.22 A 90.00 90.00 0 0 0 312.90 362.81 Z" fill="#0f766e" opacity="0.85"/>
<path d="M 296.61 372.22 L 314.91 413.33 A 135.00 135.00 0 0 1 231.93 422.05 L 241.29 378.03 A 90.00 90.00 0 0 0 296.61 372.22 Z" fill="#9d174d" opacity="0.85"/>
<text x="271.8" y="402.4" text-anchor="middle" class="lbl" fill="#fff">iosMain</text>
<path d="M 241.29 378.03 L 231.93 422.05 A 135.00 135.00 0 0 1 125.74 275.89 L 170.49 280.59 A 90.00 90.00 0 0 0 241.29 378.03 Z" fill="#6b7280" opacity="0.85"/>
<text x="168.6" y="356.4" text-anchor="middle" class="lbl" fill="#fff">commonTest</text>
<path d="M 170.49 280.59 L 125.74 275.89 A 135.00 135.00 0 0 1 143.09 222.50 L 182.06 245.00 A 90.00 90.00 0 0 0 170.49 280.59 Z" fill="#475569" opacity="0.85"/>
<path d="M 182.06 245.00 L 143.09 222.50 A 135.00 135.00 0 0 1 180.65 180.78 L 207.10 217.19 A 90.00 90.00 0 0 0 182.06 245.00 Z" fill="#475569" opacity="0.85"/>
<path d="M 207.10 217.19 L 180.65 180.78 A 135.00 135.00 0 0 1 260.00 155.00 L 260.00 200.00 A 90.00 90.00 0 0 0 207.10 217.19 Z" fill="#475569" opacity="0.85"/>
<text x="225.1" y="182.5" text-anchor="middle" class="lbl" fill="#fff">main</text>
<path d="M 260.00 150.00 L 260.00 90.00 A 200.00 200.00 0 0 1 450.21 228.20 L 393.15 246.74 A 140.00 140.00 0 0 0 260.00 150.00 Z" fill="#B91C1C" opacity="0.9"/>
<path d="M 393.15 246.74 L 450.21 228.20 A 200.00 200.00 0 0 1 458.90 310.91 L 399.23 304.63 A 140.00 140.00 0 0 0 393.15 246.74 Z" fill="#1D4ED8" opacity="0.9"/>
<path d="M 399.23 304.63 L 458.90 310.91 A 200.00 200.00 0 0 1 377.56 451.80 L 342.29 403.26 A 140.00 140.00 0 0 0 399.23 304.63 Z" fill="#94A3B8" opacity="0.9"/>
<path d="M 342.29 403.26 L 377.56 451.80 A 200.00 200.00 0 0 1 341.35 472.71 L 316.94 417.90 A 140.00 140.00 0 0 0 342.29 403.26 Z" fill="#94A3B8" opacity="0.9"/>
<path d="M 316.94 417.90 L 341.35 472.71 A 200.00 200.00 0 0 1 301.58 485.63 L 289.11 426.94 A 140.00 140.00 0 0 0 316.94 417.90 Z" fill="#B91C1C" opacity="0.9"/>
<path d="M 289.11 426.94 L 301.58 485.63 A 200.00 200.00 0 0 1 260.00 490.00 L 260.00 430.00 A 140.00 140.00 0 0 0 289.11 426.94 Z" fill="#1D4ED8" opacity="0.9"/>
<path d="M 260.00 430.00 L 260.00 490.00 A 200.00 200.00 0 0 1 218.42 485.63 L 230.89 426.94 A 140.00 140.00 0 0 0 260.00 430.00 Z" fill="#94A3B8" opacity="0.9"/>
<path d="M 230.89 426.94 L 218.42 485.63 A 200.00 200.00 0 0 1 69.79 351.80 L 126.85 333.26 A 140.00 140.00 0 0 0 230.89 426.94 Z" fill="#B91C1C" opacity="0.9"/>
<path d="M 126.85 333.26 L 69.79 351.80 A 200.00 200.00 0 0 1 61.10 310.91 L 120.77 304.63 A 140.00 140.00 0 0 0 126.85 333.26 Z" fill="#1D4ED8" opacity="0.9"/>
<path d="M 120.77 304.63 L 61.10 310.91 A 200.00 200.00 0 0 1 61.10 269.09 L 120.77 275.37 A 140.00 140.00 0 0 0 120.77 304.63 Z" fill="#94A3B8" opacity="0.9"/>
<path d="M 120.77 275.37 L 61.10 269.09 A 200.00 200.00 0 0 1 69.79 228.20 L 126.85 246.74 A 140.00 140.00 0 0 0 120.77 275.37 Z" fill="#B91C1C" opacity="0.9"/>
<path d="M 126.85 246.74 L 69.79 228.20 A 200.00 200.00 0 0 1 86.79 190.00 L 138.76 220.00 A 140.00 140.00 0 0 0 126.85 246.74 Z" fill="#94A3B8" opacity="0.9"/>
<path d="M 138.76 220.00 L 86.79 190.00 A 200.00 200.00 0 0 1 111.37 156.17 L 155.96 196.32 A 140.00 140.00 0 0 0 138.76 220.00 Z" fill="#B91C1C" opacity="0.9"/>
<path d="M 155.96 196.32 L 111.37 156.17 A 200.00 200.00 0 0 1 142.44 128.20 L 177.71 176.74 A 140.00 140.00 0 0 0 155.96 196.32 Z" fill="#94A3B8" opacity="0.9"/>
<path d="M 177.71 176.74 L 142.44 128.20 A 200.00 200.00 0 0 1 178.65 107.29 L 203.06 162.10 A 140.00 140.00 0 0 0 177.71 176.74 Z" fill="#B91C1C" opacity="0.9"/>
<path d="M 203.06 162.10 L 178.65 107.29 A 200.00 200.00 0 0 1 260.00 90.00 L 260.00 150.00 A 140.00 140.00 0 0 0 203.06 162.10 Z" fill="#1D4ED8" opacity="0.9"/>
<g transform="translate(20,560)"><rect width="14" height="14" fill="#B91C1C"/><text x="20" y="11" class="sub">Directo</text><rect x="90" width="14" height="14" fill="#1D4ED8"/><text x="110" y="11" class="sub">Transitivo</text><rect x="200" width="14" height="14" fill="#94A3B8"/><text x="220" y="11" class="sub">Expect/Actual</text><rect x="330" width="14" height="14" fill="#e5e7eb" stroke="#cbd5e1"/><text x="350" y="11" class="sub">Sin impacto</text></g>
</svg>